<svg width="24" height="17" viewBox="0 0 24 17" fill="none" xmlns="http://www.w3.org/2000/svg">
<path d="M19.98 2.16954C18.0694 0.632041 15.0469 0.371416 14.9175 0.362041C14.7169 0.345166 14.5256 0.457666 14.4431 0.643291C14.4356 0.654541 14.37 0.806416 14.2969 1.04267C15.5606 1.25642 17.1131 1.68579 18.5175 2.55767C18.7425 2.69642 18.8119 2.99267 18.6731 3.21767C18.5812 3.36579 18.4256 3.44642 18.2644 3.44642C18.1781 3.44642 18.09 3.42204 18.0112 3.37329C15.5962 1.87517 12.5812 1.80017 12 1.80017C11.4187 1.80017 8.40186 1.87517 5.98874 3.37329C5.76374 3.51392 5.46749 3.44454 5.32874 3.21954C5.18811 2.99267 5.25749 2.69829 5.48249 2.55767C6.88686 1.68767 8.43936 1.25642 9.70311 1.04454C9.62999 0.806416 9.56436 0.656416 9.55874 0.643291C9.47436 0.457666 9.28499 0.341416 9.08249 0.362041C8.95311 0.371416 5.93061 0.632041 3.99374 2.19017C2.98311 3.12579 0.95999 8.59329 0.95999 13.3202C0.95999 13.4045 0.98249 13.4852 1.02374 13.5583C2.41874 16.0108 6.22686 16.652 7.09499 16.6802C7.09874 16.6802 7.10436 16.6802 7.10999 16.6802C7.26374 16.6802 7.40811 16.607 7.49811 16.4833L8.37561 15.2758C6.00749 14.6645 4.79811 13.6258 4.72874 13.5639C4.52999 13.3895 4.51124 13.0858 4.68749 12.887C4.86186 12.6883 5.16561 12.6695 5.36436 12.8439C5.39249 12.8702 7.61999 14.7602 12 14.7602C16.3875 14.7602 18.615 12.8627 18.6375 12.8439C18.8362 12.6714 19.1381 12.6883 19.3144 12.8889C19.4887 13.0877 19.47 13.3895 19.2712 13.5639C19.2019 13.6258 17.9925 14.6645 15.6244 15.2758L16.5019 16.4833C16.5919 16.607 16.7362 16.6802 16.89 16.6802C16.8956 16.6802 16.9012 16.6802 16.905 16.6802C17.7731 16.652 21.5812 16.0108 22.9762 13.5583C23.0175 13.4852 23.04 13.4045 23.04 13.3202C23.04 8.59329 21.0169 3.12579 19.98 2.16954ZM8.87999 11.4002C7.95186 11.4002 7.19999 10.5414 7.19999 9.48017C7.19999 8.41892 7.95186 7.56017 8.87999 7.56017C9.80811 7.56017 10.56 8.41892 10.56 9.48017C10.56 10.5414 9.80811 11.4002 8.87999 11.4002ZM15.12 11.4002C14.1919 11.4002 13.44 10.5414 13.44 9.48017C13.44 8.41892 14.1919 7.56017 15.12 7.56017C16.0481 7.56017 16.8 8.41892 16.8 9.48017C16.8 10.5414 16.0481 11.4002 15.12 11.4002Z" fill="#3AAC59" fill-opacity="0.8"/>
</svg>
