<?xml version="1.0" standalone="no"?>
<!DOCTYPE svg PUBLIC "-//W3C//DTD SVG 20010904//EN"
 "http://www.w3.org/TR/2001/REC-SVG-20010904/DTD/svg10.dtd">
<svg version="1.0" xmlns="http://www.w3.org/2000/svg"
 width="1168.000000pt" height="1168.000000pt" viewBox="0 0 1168.000000 1168.000000"
 preserveAspectRatio="xMidYMid meet">
<metadata>
Created by potrace 1.14, written by Peter Selinger 2001-2017
</metadata>
<g transform="translate(0.000000,1168.000000) scale(0.100000,-0.100000)"
fill="#000000" stroke="none">
<path d="M6890 9814 c-78 -23 -153 -67 -212 -124 -32 -30 -58 -59 -58 -65 0
-6 -11 -26 -23 -45 -20 -29 -35 -65 -41 -100 -1 -3 -4 -9 -7 -15 -7 -13 -13
-77 -13 -150 1 -232 132 -416 343 -479 28 -8 51 -12 51 -9 0 3 6 1 13 -4 14
-10 132 -10 193 1 246 41 407 251 399 517 -7 242 -152 424 -379 478 -62 15
-208 12 -266 -5z"/>
<path d="M3464 9575 c-2 -5 -3 -426 -1 -934 l2 -924 100 -51 c112 -58 221
-118 278 -153 34 -21 36 -26 26 -46 -7 -12 -15 -24 -18 -27 -3 -3 -22 -27 -41
-55 -19 -27 -39 -55 -45 -62 -5 -6 -19 -23 -30 -37 -146 -188 -322 -365 -542
-545 -69 -57 -269 -179 -363 -221 -30 -14 -57 -27 -60 -30 -3 -3 -9 -6 -15 -7
-5 -1 -44 -13 -87 -27 -91 -31 -216 -58 -229 -50 -5 3 -9 1 -9 -4 0 -11 -317
-9 -365 1 -16 4 -41 10 -55 13 -14 3 -27 6 -30 6 -15 0 -142 52 -185 75 -148
78 -258 208 -305 359 -32 104 -32 102 73 159 50 28 169 83 262 124 94 40 184
79 200 86 40 18 148 59 160 61 6 1 53 16 105 32 92 30 174 53 253 73 119 29
157 38 182 43 29 6 99 20 108 22 4 1 15 2 25 3 15 2 14 3 -3 10 -11 5 -132 7
-270 5 -244 -3 -291 -5 -371 -18 -21 -4 -52 -9 -69 -11 -16 -2 -46 -7 -65 -10
-19 -4 -44 -8 -55 -10 -11 -1 -40 -8 -65 -15 -25 -7 -52 -13 -60 -15 -39 -8
-170 -45 -196 -56 -16 -7 -36 -13 -44 -15 -18 -4 -87 -32 -122 -50 -38 -20
-62 -18 -53 4 4 9 8 24 10 33 5 25 47 122 60 139 6 8 20 32 30 53 11 21 28 47
38 57 9 11 17 22 17 25 0 14 137 155 151 155 5 0 9 4 9 8 0 9 113 88 165 115
86 46 196 85 215 76 3 -1 14 2 25 8 59 32 335 36 525 8 54 -8 268 -61 335 -84
32 -11 62 -18 65 -16 7 4 7 631 0 638 -7 7 -264 79 -405 113 -11 3 -31 7 -45
8 -14 2 -36 6 -50 9 -46 11 -106 20 -220 33 -98 12 -446 11 -535 0 -38 -5 -82
-9 -97 -10 -16 -1 -28 -3 -28 -6 0 -3 -8 -6 -17 -6 -17 -1 -45 -6 -103 -18
-14 -3 -34 -8 -45 -10 -116 -23 -326 -102 -410 -155 -157 -97 -269 -191 -354
-295 -125 -154 -243 -433 -275 -652 -4 -22 -8 -51 -11 -64 -3 -14 -7 -52 -11
-85 -3 -33 -8 -73 -10 -90 -5 -41 -6 -380 0 -430 2 -22 7 -48 11 -57 10 -24 2
-32 -68 -80 -34 -23 -64 -44 -67 -47 -3 -4 -22 -17 -42 -31 -21 -14 -38 -28
-38 -32 0 -5 -4 -8 -10 -8 -5 0 -27 -16 -47 -35 -20 -19 -40 -35 -44 -35 -3 0
-19 -12 -36 -27 -16 -16 -54 -51 -84 -79 -80 -73 -79 -77 11 -33 44 21 83 39
85 39 2 0 28 11 57 25 317 147 337 153 338 104 0 -28 80 -204 120 -264 11 -16
23 -37 27 -45 3 -8 9 -17 12 -20 3 -3 24 -27 45 -55 55 -70 139 -152 216 -211
65 -50 182 -125 197 -125 4 0 15 -6 23 -14 38 -33 314 -131 435 -155 28 -5 59
-11 70 -13 11 -3 47 -8 80 -12 32 -4 68 -9 80 -11 56 -12 390 -5 495 11 182
27 323 59 423 97 29 10 59 21 69 23 9 2 30 11 47 19 17 9 32 15 33 14 6 -4
263 124 266 133 2 5 12 9 23 9 10 0 19 4 19 9 0 5 8 11 18 15 18 6 44 21 127
73 27 18 51 30 53 28 2 -1 3 -80 3 -174 l-1 -171 372 -2 c205 -2 425 -2 488 0
l116 3 -1 857 c0 471 3 869 6 884 4 15 3 28 -1 30 -5 2 10 40 33 85 72 140
151 206 282 233 219 46 386 -39 458 -231 10 -26 20 -66 22 -90 2 -24 4 -46 5
-49 1 -3 3 -390 3 -860 l2 -855 440 -5 c242 -3 461 -4 486 -2 l47 3 -3 1067
c-1 587 -5 1078 -9 1092 -4 14 -12 45 -16 70 -11 58 -36 139 -60 195 -11 25
-18 46 -17 48 1 1 -8 16 -21 34 -12 17 -22 36 -22 42 0 6 -4 11 -10 11 -5 0
-10 7 -10 15 0 8 -4 15 -10 15 -5 0 -10 5 -10 10 0 13 -41 61 -105 124 -54 52
-135 110 -202 144 -42 22 -181 71 -218 78 -106 18 -162 22 -300 19 -88 -2
-171 -6 -185 -9 -14 -3 -45 -8 -70 -10 -25 -3 -80 -14 -122 -24 -43 -11 -80
-17 -83 -14 -3 3 -5 1 -5 -4 0 -5 -9 -10 -21 -11 -44 -4 -205 -92 -242 -132
-20 -22 -38 -37 -40 -33 -2 4 -2 261 -2 572 1 311 0 570 -2 576 -5 15 -964 14
-969 -1z"/>
<path d="M8908 8625 c-2 -2 -30 -5 -63 -9 -33 -3 -67 -7 -75 -9 -48 -12 -80
-21 -125 -35 -27 -9 -52 -17 -55 -17 -21 -6 -118 -51 -145 -68 -52 -32 -141
-92 -152 -101 -114 -104 -234 -248 -282 -339 -12 -23 -26 -49 -31 -57 -40 -65
-130 -320 -145 -413 -3 -17 -8 -39 -10 -47 -2 -8 -6 -33 -9 -55 -3 -22 -9 -65
-13 -95 -16 -114 -8 -484 13 -590 3 -14 7 -36 9 -50 2 -14 15 -68 29 -120 71
-268 185 -472 359 -643 57 -56 197 -167 210 -167 3 0 28 -13 56 -29 108 -64
332 -131 457 -136 28 -1 55 -4 60 -6 19 -10 232 3 294 17 113 25 220 70 287
120 17 13 34 24 36 24 8 0 130 123 163 164 17 22 31 33 31 25 2 -33 97 -274
112 -284 6 -3 126 -6 268 -6 805 1 746 -1 738 19 -30 72 -57 155 -71 220 -25
120 -28 140 -39 242 -3 25 -7 63 -10 85 -15 135 -23 239 -30 425 -2 52 -4 489
-4 970 l-1 876 -485 0 c-429 0 -485 -2 -490 -16 -2 -8 -5 -48 -6 -87 l-2 -73
-31 19 c-73 45 -105 62 -166 92 -36 18 -67 33 -70 33 -3 1 -15 7 -27 14 -13 7
-23 10 -23 6 0 -3 -6 -2 -12 3 -30 24 -203 73 -313 88 -47 7 -232 14 -237 10z
m498 -846 c27 -7 58 -17 69 -23 11 -5 22 -11 25 -12 33 -7 108 -60 143 -99 57
-62 67 -76 67 -84 0 -5 3 -11 8 -13 4 -1 19 -27 33 -55 l26 -53 -1 -323 -1
-323 -33 -63 c-38 -72 -40 -76 -107 -142 -50 -51 -136 -106 -171 -112 -10 -1
-24 -6 -30 -10 -18 -10 -81 -18 -155 -18 -162 1 -317 92 -412 243 -51 81 -76
152 -103 288 -9 50 -11 187 -3 245 17 120 22 141 57 225 65 161 189 279 342
324 59 17 185 20 246 5z"/>
<path d="M6584 8452 c-7 -16 -13 -2766 -7 -2788 3 -7 143 -10 471 -9 257 1
470 3 473 4 3 0 5 630 5 1399 l-1 1397 -451 1 c-249 1 -459 4 -467 7 -9 3 -18
-1 -23 -11z"/>
<path d="M4468 5455 c-2 -2 -37 -5 -78 -8 -41 -3 -82 -8 -90 -11 -8 -3 -33 -7
-55 -10 -22 -3 -55 -10 -73 -15 -18 -5 -33 -10 -35 -9 -10 2 -108 -30 -179
-58 -271 -108 -500 -295 -660 -541 -16 -24 -28 -45 -28 -48 0 -3 -12 -24 -27
-48 -14 -23 -25 -42 -24 -42 1 0 -6 -18 -15 -40 -10 -22 -18 -42 -19 -45 -1
-3 -5 -12 -8 -20 -24 -56 -60 -193 -72 -270 -17 -115 -21 -169 -19 -285 1
-121 7 -195 19 -255 3 -14 7 -34 9 -46 31 -165 104 -341 202 -489 66 -98 74
-108 170 -210 46 -48 143 -128 213 -175 101 -67 321 -166 408 -184 10 -1 25
-6 33 -9 22 -9 119 -28 165 -33 159 -17 204 -19 293 -18 93 1 182 8 242 18 14
3 41 7 60 10 49 8 210 53 265 75 35 14 46 18 60 21 25 6 207 109 216 123 3 5
9 8 13 8 13 -3 124 86 192 154 64 64 184 207 184 219 0 3 15 29 33 58 65 104
145 304 162 408 4 25 9 54 12 65 11 50 17 151 17 275 0 225 -28 392 -93 555
-15 37 -95 200 -100 205 -4 3 -28 39 -56 80 -67 100 -230 262 -336 333 -82 54
-272 154 -308 162 -9 2 -36 11 -61 20 -25 9 -52 18 -60 20 -153 36 -176 40
-269 51 -45 6 -299 13 -303 9z m152 -735 c0 -3 19 -5 43 -4 23 0 56 -4 72 -8
17 -5 41 -11 54 -14 43 -9 169 -71 213 -106 71 -56 138 -130 179 -199 21 -36
39 -68 39 -71 0 -4 5 -19 11 -35 6 -15 11 -30 11 -33 0 -3 4 -15 9 -26 14 -38
22 -107 22 -194 0 -73 -7 -170 -13 -177 -3 -3 -3 -3 -14 -53 -27 -116 -124
-252 -246 -348 -36 -28 -160 -95 -160 -87 0 4 -6 3 -13 -3 -31 -26 -297 -63
-297 -42 0 4 -11 5 -25 3 -27 -6 -169 23 -200 40 -11 6 -25 12 -32 13 -30 5
-136 79 -195 136 -142 137 -210 303 -209 513 1 164 39 288 126 410 103 145
244 235 429 273 75 16 196 23 196 12z"/>
<path d="M7637 5454 c-1 -1 -33 -4 -72 -8 -66 -5 -97 -10 -155 -21 -14 -3 -38
-8 -55 -11 -16 -3 -50 -12 -75 -21 -25 -8 -52 -16 -60 -18 -8 -2 -15 -4 -15
-5 0 -2 -38 -11 -52 -12 -7 -1 -13 -5 -13 -10 0 -4 -5 -8 -10 -8 -23 0 -189
-87 -274 -143 -80 -54 -233 -194 -291 -267 -98 -122 -179 -272 -225 -415 -18
-55 -35 -107 -38 -115 -2 -8 -6 -22 -7 -30 -1 -8 -8 -46 -15 -85 -6 -38 -13
-97 -15 -130 -2 -33 -4 -60 -5 -60 -2 0 -2 -139 0 -145 1 -3 3 -36 5 -75 4
-60 10 -100 41 -245 5 -26 37 -123 57 -174 29 -72 102 -205 154 -280 62 -87
229 -261 281 -291 18 -11 32 -23 32 -27 0 -4 4 -8 10 -8 5 0 29 -13 52 -29 55
-37 96 -61 105 -63 5 -1 35 -15 67 -31 73 -36 244 -92 323 -106 32 -6 72 -13
88 -16 138 -24 400 -24 545 0 14 2 39 6 57 9 18 2 36 7 41 10 5 3 24 7 43 10
53 7 236 72 319 115 221 113 431 305 549 502 38 63 108 214 125 269 10 30 20
62 23 70 3 8 8 24 10 35 8 38 11 50 13 50 2 0 2 5 14 80 21 140 27 304 14 415
-5 36 -10 81 -12 100 -38 309 -220 638 -467 844 -101 84 -357 235 -372 219 -4
-3 -7 -2 -7 4 0 6 -10 13 -22 16 -13 3 -61 17 -108 32 -80 24 -186 47 -290 61
-41 6 -307 13 -313 8z m158 -733 c0 -1 28 -4 62 -6 35 -2 72 -9 82 -15 11 -5
27 -10 36 -10 28 0 147 -61 205 -106 46 -35 109 -98 151 -152 29 -36 78 -146
97 -215 17 -65 20 -101 18 -210 -4 -144 -18 -210 -66 -310 -74 -153 -226 -287
-390 -342 -66 -23 -52 -20 -125 -30 -103 -15 -148 -13 -290 10 -82 14 -210 77
-275 135 -19 17 -40 35 -45 38 -21 14 -105 117 -105 129 0 7 -3 13 -8 13 -16
0 -76 160 -88 235 -12 81 -7 245 10 320 20 82 75 199 117 246 17 19 40 46 52
60 12 14 47 44 77 67 30 23 62 48 70 55 8 6 17 12 20 11 3 0 23 7 45 17 22 10
43 18 47 19 4 0 25 7 46 14 21 8 65 17 97 21 33 3 61 7 62 8 2 2 98 0 98 -2z"/>
<path d="M491 5415 c-4 -5 -7 -152 -6 -325 0 -178 -3 -320 -8 -327 -5 -7 -6
-13 -1 -13 8 0 11 -375 4 -405 -1 -5 -1 -14 0 -20 8 -33 4 -485 -5 -485 -7 0
-7 -3 0 -8 13 -9 13 -305 0 -314 -7 -5 -7 -8 0 -8 12 0 14 -648 2 -667 -5 -7
-5 -13 0 -13 4 0 8 -46 8 -102 l0 -103 400 0 400 0 0 362 c0 276 3 365 13 374
10 11 12 10 12 0 0 -7 5 -9 11 -5 16 10 149 11 149 1 0 -4 8 -4 18 0 21 10
104 9 120 -1 7 -4 12 -4 12 1 0 4 46 8 103 9 184 1 316 21 467 70 70 23 229
97 240 113 3 3 17 14 31 23 48 31 141 122 191 188 50 65 133 223 142 270 3 14
12 50 20 80 22 85 28 135 29 265 1 112 -7 217 -19 257 -3 9 -7 26 -9 39 -28
143 -121 319 -227 429 -46 47 -136 124 -153 131 -5 2 -37 20 -70 39 -33 19
-64 35 -70 36 -5 1 -28 10 -50 20 -22 10 -42 18 -45 19 -3 0 -11 4 -17 8 -7 5
-13 6 -13 2 0 -3 -8 -1 -17 4 -10 5 -35 12 -57 15 -21 4 -42 8 -46 11 -4 2
-27 7 -51 10 -24 3 -51 7 -59 10 -30 9 -335 21 -365 15 -5 -1 -14 -1 -20 0
-26 5 -214 2 -223 -4 -6 -3 -13 -2 -16 2 -5 8 -29 9 -61 2 -5 -1 -14 -1 -20 0
-14 2 -208 2 -220 0 -5 -1 -14 -2 -20 -1 -14 3 -209 3 -220 1 -6 -2 -12 -2
-15 -1 -21 8 -263 4 -269 -4z m1218 -637 c202 -36 343 -206 334 -403 -3 -76
-10 -103 -46 -175 -19 -40 -109 -125 -157 -150 -88 -46 -153 -56 -361 -55
l-194 0 -1 396 -1 397 186 0 c103 0 210 -4 240 -10z"/>
<path d="M9588 5422 l-38 -3 0 -1400 0 -1399 920 0 920 0 0 318 0 317 -520 -1
c-469 -1 -520 1 -520 15 -1 9 0 496 0 1084 l1 1067 -33 1 c-70 1 -173 1 -183
-1 -5 -1 -14 -2 -20 -1 -14 3 -209 3 -220 1 -6 -2 -14 -1 -20 0 -25 4 -217 2
-222 -4 -3 -3 -11 -2 -17 2 -6 4 -28 6 -48 4z"/>
</g>
</svg>
