<svg width="22" height="21" viewBox="0 0 22 21" fill="none" xmlns="http://www.w3.org/2000/svg">
<path d="M21.1456 1.14442C20.7856 0.838795 20.2212 0.795671 19.6362 1.03005H19.6344C19.0194 1.27755 2.22874 8.47942 1.54624 8.7738C1.42249 8.81692 0.334995 9.22192 0.447495 10.1238C0.54687 10.9375 1.42062 11.275 1.52749 11.3144L5.79499 12.775C6.07812 13.7182 7.12249 17.1963 7.35312 17.9388C7.49749 18.4019 7.73187 19.0113 8.14437 19.1369C8.50437 19.2757 8.86437 19.1482 9.09499 18.9663L11.705 16.5457L15.9181 19.8307L16.0194 19.8907C16.3044 20.0182 16.5781 20.0819 16.8406 20.0819C17.0431 20.0819 17.2362 20.0425 17.4219 19.9675C18.0537 19.7088 18.305 19.1069 18.3312 19.0375L21.4794 2.68192C21.6706 1.80817 21.4044 1.3638 21.1456 1.14442ZM9.55999 13.36L8.11999 17.2L6.67999 12.4L17.72 4.24005L9.55999 13.36Z" fill="#3AAC59" fill-opacity="0.8"/>
</svg>
