<svg width="30" height="24" viewBox="0 0 30 24" fill="none" xmlns="http://www.w3.org/2000/svg">
<path d="M30 6.10169C30 2.73182 27.2018 -5.89204e-07 23.75 0L7.5 2.77382e-06L11.875 20.7458H30V6.10169Z" fill="#3AAC59"/>
<path d="M1.31134e-06 14.6441C1.6131e-06 18.014 2.79822 20.7458 6.25 20.7458H23.75L19.132 0L0 1.63288e-06L1.31134e-06 14.6441Z" fill="#3AAC59"/>
<path d="M30 23.9998L23.75 20.7456H30L30 23.9998Z" fill="#3AAC59"/>
<path d="M5 6.91525C5 5.79196 5.93275 4.88135 7.08333 4.88135H18.75V6.50847C18.75 7.63175 17.8172 8.54237 16.6667 8.54237H5V6.91525Z" fill="white"/>
<path d="M5 13.8308C5 12.7075 5.93275 11.7969 7.08333 11.7969H14.1667V13.424C14.1667 14.5473 13.2339 15.4579 12.0833 15.4579H5V13.8308Z" fill="#C6F6D5"/>
</svg>
