<svg width="27" height="24" viewBox="0 0 27 24" fill="none" xmlns="http://www.w3.org/2000/svg">
<path d="M13.5 0C13.3377 2.14277e-05 13.177 0.0331763 13.0272 0.0975452C12.8775 0.161914 12.7416 0.256219 12.6275 0.375L0.24929 11.4918C0.171983 11.5505 0.10915 11.6271 0.065851 11.7153C0.0225519 11.8036 -3.69126e-06 11.9011 4.53099e-10 12C4.53099e-10 12.1675 0.0646508 12.3281 0.17973 12.4466C0.294809 12.565 0.45089 12.6316 0.613636 12.6316H3.68182V22.7368C3.68182 23.4341 4.23164 24 4.90909 24H9.81818C10.4956 24 11.0455 23.4341 11.0455 22.7368V15.1579H15.9545V22.7368C15.9545 23.4341 16.5044 24 17.1818 24H22.0909C22.7684 24 23.3182 23.4341 23.3182 22.7368V12.6316H26.3864C26.5491 12.6316 26.7052 12.565 26.8203 12.4466C26.9354 12.3281 27 12.1675 27 12C27 11.9011 26.9774 11.8036 26.9342 11.7153C26.8909 11.6271 26.828 11.5505 26.7507 11.4918L14.3797 0.382401C14.3773 0.379924 14.3749 0.377457 14.3725 0.375C14.2584 0.256219 14.1225 0.161914 13.9728 0.0975452C13.823 0.0331763 13.6623 2.14277e-05 13.5 0Z" fill="#3AAC59"/>
</svg>
