<svg width="16" height="16" viewBox="0 0 16 16" fill="none" xmlns="http://www.w3.org/2000/svg">
<g opacity="0.5">
<path d="M4.66687 10.5866C4.49354 10.5866 4.32687 10.52 4.19354 10.3933L2.19354 8.3933C1.93354 8.1333 1.93354 7.7133 2.19354 7.4533L4.19354 5.4533C4.45354 5.1933 4.87354 5.1933 5.13354 5.4533C5.39354 5.7133 5.39354 6.1333 5.13354 6.3933L3.60687 7.91997L5.13354 9.44663C5.39354 9.70663 5.39354 10.1266 5.13354 10.3866C5.00687 10.52 4.8402 10.5866 4.66687 10.5866Z" fill="black"/>
<path d="M11.3317 5.25834C11.505 5.25834 11.6717 5.325 11.805 5.45167L13.805 7.45167C14.065 7.71167 14.065 8.13167 13.805 8.39167L11.805 10.3917C11.545 10.6517 11.125 10.6517 10.865 10.3917C10.605 10.1317 10.605 9.71167 10.865 9.45167L12.3917 7.925L10.865 6.39834C10.605 6.13834 10.605 5.71834 10.865 5.45834C10.9917 5.325 11.1583 5.25834 11.3317 5.25834Z" fill="black"/>
</g>
</svg>
